<svg xmlns="http://www.w3.org/2000/svg" version="1.1" xmlns:xlink="http://www.w3.org/1999/xlink" xmlns:svgjs="http://svgjs.com/svgjs" width="67.34" height="67.34"><svg id="SvgjsSvg1000" data-name="Layer 1" xmlns="http://www.w3.org/2000/svg" viewBox="0 0 67.34 67.34"><defs><style>.cls-1{fill:#36535b;}</style></defs><path class="cls-1" d="M9.86,67.33a9.85,9.85,0,0,1-7.23-2.61C-4.54,57.55,3.4,38.8,21.1,21.1S57.55-4.54,64.72,2.63h0c7.16,7.16-.78,25.92-18.48,43.61-8.08,8.09-16.89,14.51-24.81,18.1A29.06,29.06,0,0,1,9.86,67.33ZM57.49,4c-7.23,0-20.43,6.78-33.56,19.92C7.3,40.56.85,57.28,5.46,61.89s21.33-1.85,38-18.47,23.08-33.36,18.47-38A6,6,0,0,0,57.49,4Z"></path><circle class="cls-1" cx="32.75" cy="33.67" r="7.82"></circle><path class="cls-1" d="M57.44,67.34c-9.13,0-23-7.79-36.34-21.1C13,38.16,6.59,29.35,3,21.44-.85,12.92-1,6.24,2.63,2.63,9.79-4.54,28.55,3.4,46.24,21.1S71.88,57.55,64.72,64.72A9.91,9.91,0,0,1,57.44,67.34ZM9.85,4A6,6,0,0,0,5.46,5.46c-4.61,4.6,1.84,21.33,18.47,38s33.35,23.08,38,18.47S60,40.56,43.42,23.93C30.28,10.79,17.09,4,9.85,4Z"></path><path class="cls-1" d="M9.86,67.34a9.81,9.81,0,0,1-7.23-2.62c-7.17-7.16.77-25.91,18.47-43.61S57.55-4.53,64.72,2.63h0c7.16,7.17-.78,25.92-18.48,43.62-8.08,8.08-16.89,14.51-24.81,18.09A28.93,28.93,0,0,1,9.86,67.34ZM57.49,4C50.26,4,37.06,10.8,23.93,23.93,7.3,40.56.85,57.29,5.45,61.9s21.34-1.85,38-18.48,23.08-33.35,18.47-38A6,6,0,0,0,57.49,4Z"></path></svg><style>@media (prefers-color-scheme: light) { :root { filter: none; } }
@media (prefers-color-scheme: dark) { :root { filter: contrast(0.3846153846153846) brightness(4.5); } }
</style></svg>